<svg width="212" height="299" viewBox="0 0 212 299" fill="none" xmlns="http://www.w3.org/2000/svg">
<path fill-rule="evenodd" clip-rule="evenodd" d="M210.085 194.041C210.085 136.299 163.276 89.4905 105.534 89.4905C47.7924 89.4905 0.983643 136.299 0.983643 194.041C0.983643 251.783 47.7924 298.592 105.534 298.592C163.276 298.592 210.085 251.783 210.085 194.041Z" fill="#00609E" fill-opacity="0.101961"/>
<path fill-rule="evenodd" clip-rule="evenodd" d="M194.077 194.541C194.077 145.917 154.659 106.499 106.034 106.499C57.4099 106.499 17.9917 145.917 17.9917 194.541C17.9917 243.166 57.4099 282.584 106.034 282.584C154.659 282.584 194.077 243.166 194.077 194.541Z" fill="#00609E" fill-opacity="0.2"/>
<path fill-rule="evenodd" clip-rule="evenodd" d="M178.07 194.541C178.07 154.758 145.818 122.506 106.035 122.506C66.2508 122.506 33.9995 154.758 33.9995 194.541C33.9995 234.325 66.2508 266.577 106.035 266.577C145.818 266.577 178.07 234.325 178.07 194.541Z" fill="#00609E" fill-opacity="0.2"/>
<path fill-rule="evenodd" clip-rule="evenodd" d="M139.255 184.243C138.563 183.403 137.574 183.25 136.613 183.25H136.598L80.848 178.106C79.5422 178.106 78.8462 178.534 78.49 178.971C78.1106 179.432 77.7216 180.233 78.0396 181.78L87.7203 209.178C88.5026 211.132 90.8035 212.409 92.849 212.409L133.194 212.409C135.274 212.409 137.295 211.04 137.713 208.927L140.037 186.975C140.253 185.915 139.965 185.112 139.255 184.253V184.243Z" fill="white"/>
<path fill-rule="evenodd" clip-rule="evenodd" d="M88.6561 208.823L79.0065 181.514C78.7706 180.29 79.0927 179.814 79.2636 179.606L79.2667 179.602C79.3918 179.448 79.765 179.115 80.8046 179.106L136.507 184.245L136.553 184.25L136.613 184.25C137.433 184.25 137.995 184.378 138.386 184.773L138.483 184.891C138.785 185.257 138.953 185.556 139.036 185.83C139.115 186.092 139.136 186.388 139.057 186.776L139.047 186.823L139.042 186.87L136.723 208.774C136.395 210.315 134.869 211.408 133.193 211.408L92.849 211.409C91.1371 211.409 89.2673 210.318 88.6569 208.823H88.6561V208.823Z" stroke="#00609E" stroke-width="0.508" stroke-miterlimit="22.9256"/>
<path d="M113.87 200.13C113.59 199.65 112.667 198.731 112.186 198.456C111.702 198.18 111.153 198.034 110.596 198.034C109.463 198.034 108.184 199.057 107.608 200.033" stroke="#00609E" stroke-width="0.508" stroke-miterlimit="22.9256" stroke-linecap="round" stroke-linejoin="round"/>
<path fill-rule="evenodd" clip-rule="evenodd" d="M101.934 196.312C103.022 196.311 103.903 195.43 103.903 194.343C103.903 193.257 103.022 192.376 101.935 192.376C100.848 192.376 99.967 193.257 99.967 194.343C99.967 195.43 100.848 196.311 101.935 196.311L101.934 196.312ZM118.467 192.376C118.467 192.376 118.467 192.376 118.468 192.376C119.554 192.376 120.435 191.495 120.435 190.408C120.435 189.322 119.555 188.442 118.469 188.441C118.468 188.441 118.468 188.441 118.468 188.441C117.382 188.441 116.501 189.322 116.501 190.408C116.501 191.494 117.381 192.375 118.467 192.376V192.376Z" fill="#00609E"/>
<path fill-rule="evenodd" clip-rule="evenodd" d="M130.16 218.553H130.327C131.726 218.632 132.746 219.667 132.746 220.976C132.746 222.338 131.638 223.405 130.155 223.405V224.406L130.154 223.405H82.9722C81.4453 223.405 80.7023 223.23 80.283 222.981C79.9268 222.769 79.6746 222.427 79.3996 221.599L64.9854 176.08L64.7643 175.382H52.4434C50.9607 175.382 49.8521 174.314 49.8521 172.953C49.8521 171.592 50.9607 170.525 52.4434 170.525V169.524V170.525L66.8454 170.524C67.6868 170.524 68.0862 170.689 68.3463 170.909C68.6404 171.157 68.9195 171.609 69.2368 172.532L70.2642 175.54L70.7633 176.997L70.9173 177.451L70.9604 177.575L70.9714 177.607V177.609L83.8344 217.857L84.0564 218.553L130.16 218.553V218.553ZM97.065 235.465C97.0647 238.884 94.2922 241.657 90.8727 241.657C87.4528 241.657 84.6803 238.884 84.6796 235.465C84.6796 232.044 87.4521 229.271 90.8724 229.27C94.2929 229.271 97.0655 232.044 97.0655 235.465L97.065 235.465Z" fill="white" stroke="#00609E" stroke-width="0.508" stroke-miterlimit="22.9256"/>
<path fill-rule="evenodd" clip-rule="evenodd" d="M92.5279 235.465C92.5279 236.378 91.7868 237.12 90.8725 237.12C89.9581 237.12 89.2166 236.378 89.2166 235.464V235.463C89.217 234.549 89.9581 233.808 90.8725 233.808C91.7868 233.808 92.5284 234.549 92.5284 235.464V235.464L92.5279 235.465Z" fill="#00609E" stroke="#00609E" stroke-width="0.254" stroke-miterlimit="22.9256"/>
<path fill-rule="evenodd" clip-rule="evenodd" d="M127.939 235.465C127.938 238.884 125.166 241.657 121.747 241.657C118.326 241.657 115.554 238.884 115.553 235.465C115.553 232.044 118.325 229.271 121.746 229.27C125.167 229.271 127.939 232.044 127.939 235.465V235.465Z" fill="white" stroke="#00609E" stroke-width="0.508" stroke-miterlimit="22.9256"/>
<path fill-rule="evenodd" clip-rule="evenodd" d="M123.543 235.465C123.511 236.433 122.716 237.203 121.746 237.203C120.777 237.203 119.981 236.433 119.949 235.464C119.981 234.495 120.777 233.726 121.746 233.726C122.716 233.726 123.511 234.495 123.543 235.465V235.465Z" fill="#00609E" stroke="#00609E" stroke-width="0.254" stroke-miterlimit="22.9256"/>
<path d="M112.037 163.526V169.529" stroke="#00609E" stroke-width="0.508" stroke-miterlimit="22.9256" stroke-linecap="round" stroke-linejoin="round"/>
<path d="M120.804 168.895L117.803 174.093" stroke="#00609E" stroke-width="0.508" stroke-miterlimit="22.9256" stroke-linecap="round" stroke-linejoin="round"/>
<path d="M103.064 168.895L106.066 174.094" stroke="#00609E" stroke-width="0.508" stroke-miterlimit="22.9256" stroke-linecap="round" stroke-linejoin="round"/>
<path fill-rule="evenodd" clip-rule="evenodd" d="M167.878 112.362L169.264 110.976L172.259 113.971L170.873 115.357L167.878 112.362Z" fill="#80BBE1"/>
<path fill-rule="evenodd" clip-rule="evenodd" d="M169.755 108.249C169.641 108.135 169.491 108.073 169.33 108.073C168.998 108.073 168.729 108.342 168.729 108.674C168.729 108.832 168.793 108.987 168.905 109.099L174.136 114.33C174.25 114.444 174.4 114.506 174.561 114.506C174.893 114.506 175.162 114.237 175.162 113.905C175.162 113.747 175.098 113.592 174.986 113.48L169.755 108.249Z" fill="#80BBE1"/>
<path fill-rule="evenodd" clip-rule="evenodd" d="M171.631 108.609L173.017 107.222L176.012 110.218L174.626 111.604L171.631 108.609Z" fill="#80BBE1"/>
<path fill-rule="evenodd" clip-rule="evenodd" d="M166.002 112.002C165.888 111.888 165.738 111.826 165.577 111.826C165.246 111.826 164.976 112.096 164.976 112.427C164.976 112.585 165.04 112.74 165.152 112.852L170.383 118.083C170.497 118.197 170.647 118.259 170.808 118.259C171.14 118.259 171.409 117.99 171.409 117.658C171.409 117.5 171.345 117.345 171.233 117.233L166.002 112.002Z" fill="#80BBE1"/>
<path fill-rule="evenodd" clip-rule="evenodd" d="M173.508 104.496C173.394 104.382 173.243 104.32 173.083 104.32C172.751 104.32 172.481 104.59 172.481 104.921C172.481 105.079 172.546 105.234 172.657 105.346L177.889 110.578C178.002 110.691 178.153 110.753 178.314 110.753C178.645 110.753 178.915 110.484 178.915 110.152C178.915 109.994 178.85 109.839 178.739 109.727L173.508 104.496Z" fill="#80BBE1"/>
<path fill-rule="evenodd" clip-rule="evenodd" d="M165.512 118.259C165.512 118.555 165.272 118.795 164.976 118.795C164.68 118.795 164.44 118.555 164.44 118.259C164.44 117.963 164.68 117.723 164.976 117.723C165.272 117.723 165.512 117.963 165.512 118.259Z" fill="#80BBE1"/>
<path fill-rule="evenodd" clip-rule="evenodd" d="M162.916 117.325C162.516 117.725 162.295 118.257 162.295 118.822C162.295 119.99 163.245 120.94 164.413 120.94C164.978 120.94 165.51 120.719 165.91 120.32L168.507 117.723L165.512 114.728L162.916 117.325ZM166.584 118.259C166.584 119.146 165.862 119.868 164.976 119.868C164.089 119.868 163.367 119.146 163.367 118.259C163.367 117.373 164.089 116.651 164.976 116.651C165.862 116.651 166.584 117.373 166.584 118.259Z" fill="#80BBE1"/>
<path fill-rule="evenodd" clip-rule="evenodd" d="M179.136 101.103L180.523 99.717L183.518 102.712L182.131 104.098L179.136 101.103Z" fill="#80BBE1"/>
<path fill-rule="evenodd" clip-rule="evenodd" d="M191.246 92.5253C191.246 92.8214 191.006 93.0614 190.71 93.0614C190.414 93.0614 190.174 92.8214 190.174 92.5253C190.174 92.2293 190.414 91.9893 190.71 91.9893C191.006 91.9893 191.246 92.2293 191.246 92.5253Z" fill="#80BBE1"/>
<path fill-rule="evenodd" clip-rule="evenodd" d="M185.621 93.0206C185.302 92.7013 184.878 92.5254 184.426 92.5254C183.878 92.5254 183.379 92.7925 183.062 93.233L190.002 100.173C190.442 99.8562 190.71 99.3573 190.71 98.8094C190.71 98.3573 190.534 97.9327 190.214 97.6138L185.621 93.0206Z" fill="#80BBE1"/>
<path fill-rule="evenodd" clip-rule="evenodd" d="M190.515 89.8447C189.746 89.8447 189.024 90.1439 188.481 90.6868L186.643 92.5253L190.71 96.5923L192.548 94.7541C193.091 94.2109 193.39 93.4886 193.39 92.7204C193.39 91.1345 192.1 89.8447 190.515 89.8447ZM190.71 94.1337C189.823 94.1337 189.101 93.4119 189.101 92.5253C189.101 91.6387 189.823 90.9169 190.71 90.9169C191.596 90.9169 192.318 91.6387 192.318 92.5253C192.318 93.4119 191.596 94.1337 190.71 94.1337Z" fill="#80BBE1"/>
<path fill-rule="evenodd" clip-rule="evenodd" d="M177.261 100.743C177.147 100.629 176.996 100.567 176.835 100.567C176.504 100.567 176.234 100.837 176.234 101.168C176.234 101.326 176.299 101.481 176.41 101.593L181.642 106.825C181.755 106.938 181.906 107.001 182.067 107.001C182.398 107.001 182.668 106.731 182.668 106.4C182.668 106.241 182.604 106.087 182.492 105.974L177.261 100.743Z" fill="#80BBE1"/>
<path fill-rule="evenodd" clip-rule="evenodd" d="M175.384 104.856L176.77 103.47L179.765 106.465L178.379 107.851L175.384 104.856Z" fill="#80BBE1"/>
<path fill-rule="evenodd" clip-rule="evenodd" d="M180.134 97.8116L185.424 103.101L189.084 100.771L182.464 94.1511L180.134 97.8116Z" fill="#80BBE1"/>
<path fill-rule="evenodd" clip-rule="evenodd" d="M91.2042 79.9697L85.7063 86.139C86.5688 87.0026 87.5707 87.7231 88.6672 88.2832L92.8337 81.1511C92.1772 80.926 91.6127 80.5134 91.2042 79.9697Z" fill="#80BBE1"/>
<path fill-rule="evenodd" clip-rule="evenodd" d="M89.9299 88.8319C91.1796 89.2921 92.5236 89.5563 93.9314 89.5563C95.3392 89.5563 96.6825 89.2921 97.933 88.8319L93.9314 81.9827L89.9299 88.8319Z" fill="#80BBE1"/>
<path fill-rule="evenodd" clip-rule="evenodd" d="M82.3249 77.4929C82.3196 77.6385 82.3032 77.7808 82.3032 77.9282C82.3032 80.6354 83.241 83.123 84.7978 85.102L90.0741 79.1813L82.3249 77.4929Z" fill="#80BBE1"/>
<path fill-rule="evenodd" clip-rule="evenodd" d="M93.9313 74.5079C94.2837 74.5079 94.6167 74.5767 94.9366 74.6759L95.7589 66.4577C95.1617 66.3632 94.5546 66.2998 93.9313 66.2998C93.3081 66.2998 92.7006 66.3632 92.1038 66.4577L92.925 74.6759C93.2453 74.5767 93.5783 74.5079 93.9313 74.5079Z" fill="#80BBE1"/>
<path fill-rule="evenodd" clip-rule="evenodd" d="M95.9834 77.928C95.9834 79.0612 95.0648 79.98 93.9314 79.98C92.7982 79.98 91.8794 79.0612 91.8794 77.928C91.8794 76.7945 92.7982 75.876 93.9314 75.876C95.0648 75.876 95.9834 76.7945 95.9834 77.928Z" fill="#80BBE1"/>
<path fill-rule="evenodd" clip-rule="evenodd" d="M90.7582 66.7512C88.083 67.512 85.7945 69.2 84.2771 71.4544L91.5468 74.6474L90.7582 66.7512Z" fill="#80BBE1"/>
<path fill-rule="evenodd" clip-rule="evenodd" d="M91.1413 75.9629L83.5857 72.6448C83.035 73.7184 82.6518 74.8881 82.4585 76.1216L90.5167 77.8766C90.5271 77.1646 90.7569 76.5066 91.1413 75.9629Z" fill="#80BBE1"/>
<path fill-rule="evenodd" clip-rule="evenodd" d="M103.064 85.102C104.622 83.123 105.56 80.6354 105.56 77.9282C105.56 77.7808 105.543 77.6385 105.538 77.4929L97.7883 79.1813L103.064 85.102Z" fill="#80BBE1"/>
<path fill-rule="evenodd" clip-rule="evenodd" d="M111.032 77.244H113.751C113.676 75.0454 113.244 72.9366 112.507 70.9744L109.992 72.016L109.468 70.7519L111.979 69.7115C111.082 67.7497 109.878 65.9598 108.424 64.4021L106.507 66.3189L105.54 65.3517L107.456 63.4352C105.9 61.9816 104.109 60.7762 102.148 59.8795L101.107 62.3898L99.844 61.8674L100.885 59.3528C98.9232 58.6153 96.8138 58.1839 94.6154 58.1086V60.8277H93.2475V58.1086C91.0491 58.1831 88.9392 58.6153 86.9777 59.3522L88.0187 61.8667L86.7546 62.3905L85.7142 59.8802C83.7534 60.777 81.9632 61.9817 80.4058 63.4359L82.3222 65.3522L81.3549 66.3195L79.4386 64.4031C77.9843 65.9605 76.7789 67.7504 75.8828 69.7122L78.3938 70.7525L77.8707 72.0161L75.3555 70.9744C74.6198 72.9366 74.1871 75.0454 74.1121 77.244H76.831V78.612L74.1121 78.6121C74.1866 80.8104 74.619 82.9192 75.3555 84.8818L77.8707 83.84L78.3948 85.1039L75.8835 86.1442C76.7802 88.1055 77.985 89.8963 79.4392 91.4537L81.3557 89.537L82.3229 90.5042L80.4064 92.421C81.9632 93.8746 83.7541 95.0795 85.7149 95.9764L86.7552 93.466L88.0194 93.9901L86.9784 96.5044C88.9403 97.2417 91.0498 97.6733 93.248 97.7478V95.0284H94.6161V97.7471C96.8144 97.6726 98.9239 97.2404 100.886 96.5037L99.8448 93.9893L101.109 93.4654L102.149 95.9756C104.11 95.0788 105.9 93.8744 107.458 92.4203L105.541 90.5035L106.508 89.5362L108.425 91.453C109.879 89.8952 111.084 88.1055 111.98 86.1436L109.469 85.1032L109.993 83.839L112.508 84.881C113.245 82.9186 113.677 80.8098 113.752 78.6114H111.032V77.244ZM93.9314 93.6603C85.256 93.6603 78.1991 86.6024 78.1991 77.9281C78.1991 69.2533 85.256 62.1957 93.9314 62.1957C102.607 62.1957 109.664 69.2533 109.664 77.9281C109.664 86.6024 102.607 93.6603 93.9314 93.6603Z" fill="#80BBE1"/>
<path fill-rule="evenodd" clip-rule="evenodd" d="M93.9314 63.5637C86.0112 63.5637 79.5671 70.0071 79.5671 77.928C79.5671 85.8486 86.0112 92.2923 93.9314 92.2923C101.852 92.2923 108.296 85.8485 108.296 77.928C108.296 70.0071 101.852 63.5637 93.9314 63.5637ZM93.9314 90.9243C86.7651 90.9243 80.9352 85.0945 80.9352 77.928C80.9352 70.7615 86.7651 64.9317 93.9314 64.9317C101.098 64.9317 106.928 70.7615 106.928 77.928C106.928 85.0945 101.098 90.9243 93.9314 90.9243Z" fill="#80BBE1"/>
<path fill-rule="evenodd" clip-rule="evenodd" d="M95.0293 81.1511L99.1954 88.2832C100.293 87.7231 101.294 87.0026 102.157 86.139L96.6585 79.9697C96.2503 80.5136 95.6858 80.926 95.0293 81.1511Z" fill="#80BBE1"/>
<path fill-rule="evenodd" clip-rule="evenodd" d="M97.3456 77.8773L105.404 76.1222C105.211 74.888 104.827 73.7183 104.277 72.6453L96.7214 75.9635C97.1058 76.5065 97.3355 77.1645 97.3456 77.8773Z" fill="#80BBE1"/>
<path fill-rule="evenodd" clip-rule="evenodd" d="M97.1042 66.7512L96.3149 74.6474L103.585 71.4544C102.068 69.1993 99.7796 67.512 97.1042 66.7512Z" fill="#80BBE1"/>
<path fill-rule="evenodd" clip-rule="evenodd" d="M19.2309 130.492C19.7356 131.054 19.6894 131.918 19.1277 132.423C18.5661 132.928 17.7016 132.881 17.197 132.32C16.6922 131.758 16.7385 130.894 17.3002 130.389C17.8617 129.884 18.7262 129.93 19.2309 130.492Z" fill="#80BBE1"/>
<path fill-rule="evenodd" clip-rule="evenodd" d="M16.7447 133.698C16.131 134.402 15.7313 135.279 15.6047 136.205C16.4294 136.652 17.3474 136.875 18.2678 136.866C17.7602 136.001 17.4649 135.017 17.4205 134.012C17.1833 133.94 16.957 133.835 16.7447 133.698Z" fill="#80BBE1"/>
<path fill-rule="evenodd" clip-rule="evenodd" d="M27.3671 123.181C23.6364 119.029 17.6609 117.922 12.7089 120.408L12.5327 123.707C16.4487 120.813 22.013 121.314 25.3331 125.009C28.8602 128.935 28.5364 134.998 24.6107 138.525C20.6849 142.052 14.6221 141.728 11.0948 137.803C7.79878 134.134 7.86771 128.601 11.0938 125.013L11.5109 117.209L5.15271 116.87L4.5935 127.332C4.35524 131.791 5.86779 136.077 8.85281 139.399C13.3444 144.397 21.0808 145.05 26.0985 140.853C28.6828 138.684 30.2485 135.643 30.4881 132.283C30.7276 128.92 29.6197 125.688 27.3671 123.181ZM6.73962 119.659C7.58057 118.903 8.88018 118.972 9.6358 119.813C10.3914 120.654 10.3221 121.954 9.48097 122.71C8.64002 123.465 7.3404 123.396 6.58478 122.555C5.82916 121.714 5.89853 120.414 6.73962 119.659Z" fill="#80BBE1"/>
<path fill-rule="evenodd" clip-rule="evenodd" d="M18.7957 134.065C18.8595 134.996 19.1965 135.899 19.7619 136.644C20.5203 136.421 21.2433 136.036 21.8692 135.474C21.9562 135.396 22.0342 135.312 22.1151 135.23C21.1439 134.977 20.2396 134.49 19.497 133.812C19.2728 133.93 19.038 134.012 18.7957 134.065Z" fill="#80BBE1"/>
<path fill-rule="evenodd" clip-rule="evenodd" d="M8.61861 120.727C8.87092 121.008 8.84779 121.44 8.56694 121.693C8.28624 121.945 7.85391 121.922 7.6016 121.641C7.34929 121.36 7.37242 120.928 7.65327 120.676C7.93397 120.423 8.3663 120.446 8.61861 120.727Z" fill="#80BBE1"/>
<path fill-rule="evenodd" clip-rule="evenodd" d="M4.2605 115.453L4.34231 113.922L13.5967 114.416L13.5148 115.947L4.2605 115.453Z" fill="#80BBE1"/>
<path fill-rule="evenodd" clip-rule="evenodd" d="M2.48389 112.453L2.5657 110.922L15.6814 111.623L15.5995 113.154L2.48389 112.453Z" fill="#80BBE1"/>
<path fill-rule="evenodd" clip-rule="evenodd" d="M12.1335 143.549L12.4956 145.614C12.6246 146.351 12.9563 147.034 13.4558 147.59L13.5536 147.699C14.265 148.491 15.2421 148.958 16.3046 149.014C17.3676 149.071 18.3888 148.711 19.1806 147.999L19.2889 147.902C19.8453 147.402 20.2479 146.758 20.4547 146.04L20.8256 144.752C17.9138 145.278 14.8463 144.868 12.1335 143.549ZM16.8798 147.309C16.5992 147.561 16.1669 147.539 15.9144 147.258C15.6615 146.976 15.6854 146.544 15.9659 146.292C16.2465 146.04 16.6785 146.063 16.9314 146.344C17.1839 146.625 17.1603 147.057 16.8798 147.309Z" fill="#80BBE1"/>
<path fill-rule="evenodd" clip-rule="evenodd" d="M20.5063 132.875C21.2107 133.488 22.0868 133.888 23.0132 134.015C23.4606 133.191 23.6831 132.273 23.6746 131.352C22.8091 131.86 21.8248 132.153 20.8198 132.199C20.7481 132.436 20.642 132.662 20.5063 132.875Z" fill="#80BBE1"/>
<path fill-rule="evenodd" clip-rule="evenodd" d="M12.1117 136.889C15.1352 140.254 20.3319 140.531 23.6967 137.508C27.0617 134.484 27.3393 129.288 24.316 125.923C21.2924 122.558 16.0957 122.28 12.7309 125.304C9.36599 128.327 9.08835 133.524 12.1117 136.889ZM13.6448 126.321C16.4487 123.801 20.7793 124.033 23.2988 126.837C25.8183 129.641 25.5869 133.971 22.7829 136.491C19.9789 139.01 15.6482 138.779 13.1287 135.975C10.6093 133.171 10.8408 128.84 13.6448 126.321Z" fill="#80BBE1"/>
<path fill-rule="evenodd" clip-rule="evenodd" d="M35.9008 126.542L34.8838 127.456L33.0561 125.422L31.1931 127.096C31.7492 128.773 31.9812 130.557 31.8514 132.38C31.7466 133.85 31.4019 135.26 30.8623 136.584L36.0998 131.877L34.2722 129.843L35.2892 128.93L37.1168 130.964L39.1509 129.136L37.3232 127.102L38.3402 126.188L40.1679 128.222L41.1849 127.308L36.6157 122.223L34.0731 124.508L35.9008 126.542Z" fill="#80BBE1"/>
<path fill-rule="evenodd" clip-rule="evenodd" d="M37.6328 121.31L38.6498 120.396L43.219 125.481L42.202 126.395L37.6328 121.31Z" fill="#80BBE1"/>
<path fill-rule="evenodd" clip-rule="evenodd" d="M20.8724 130.824C21.8041 130.758 22.7038 130.416 23.4511 129.855C23.2284 129.098 22.8433 128.376 22.2818 127.751C22.2038 127.664 22.1197 127.586 22.0376 127.504C21.785 128.475 21.2978 129.379 20.6196 130.123C20.7383 130.346 20.8201 130.581 20.8724 130.824Z" fill="#80BBE1"/>
<path fill-rule="evenodd" clip-rule="evenodd" d="M38.7529 118.465L39.7699 117.551L46.1668 124.67L45.1497 125.584L38.7529 118.465Z" fill="#80BBE1"/>
<path fill-rule="evenodd" clip-rule="evenodd" d="M14.3901 135.307C14.6424 134.336 15.1299 133.432 15.8081 132.689C15.6888 132.465 15.6072 132.23 15.5546 131.987C14.6247 132.051 13.7297 132.386 12.9756 132.955C13.1989 133.713 13.5838 134.436 14.1458 135.061C14.224 135.148 14.308 135.226 14.3901 135.307V135.307Z" fill="#80BBE1"/>
<path fill-rule="evenodd" clip-rule="evenodd" d="M15.9212 129.937C15.2165 129.323 14.3405 128.923 13.414 128.796C12.9666 129.621 12.7443 130.538 12.7527 131.459C13.6183 130.952 14.6026 130.658 15.6076 130.612C15.6794 130.375 15.7853 130.149 15.9212 129.937Z" fill="#80BBE1"/>
<path fill-rule="evenodd" clip-rule="evenodd" d="M17.6322 128.747C17.5684 127.815 17.2313 126.912 16.666 126.168C15.9076 126.39 15.1846 126.775 14.5586 127.338C14.4717 127.416 14.3937 127.5 14.3127 127.582C15.2839 127.835 16.1883 128.322 16.9309 129C17.1549 128.881 17.3897 128.799 17.6322 128.747Z" fill="#80BBE1"/>
<path fill-rule="evenodd" clip-rule="evenodd" d="M19.6828 129.113C20.2966 128.409 20.6963 127.533 20.8229 126.607C19.9982 126.159 19.0801 125.936 18.1597 125.945C18.6672 126.811 18.9624 127.795 19.0071 128.8C19.2443 128.872 19.4706 128.977 19.6828 129.113Z" fill="#80BBE1"/>
<path fill-rule="evenodd" clip-rule="evenodd" d="M157.452 68.1463L155.9 67.6291C155.851 67.4041 155.791 67.1811 155.722 66.9618L156.807 65.7382C156.962 65.5628 156.988 65.3076 156.871 65.1048L156.288 64.0946C156.17 63.8916 155.937 63.7864 155.707 63.8334L154.102 64.1618C153.947 63.9928 153.785 63.8303 153.615 63.6756L153.944 62.0704C153.991 61.8408 153.886 61.6069 153.683 61.4897L152.673 60.9065C152.47 60.7892 152.214 60.815 152.039 60.9706L150.815 62.0556C150.596 61.986 150.373 61.9263 150.148 61.8769L149.631 60.3254C149.557 60.1031 149.349 59.9531 149.114 59.9531H147.948C147.713 59.9531 147.505 60.1031 147.431 60.3254L146.914 61.8769C146.689 61.9263 146.466 61.986 146.247 62.0556L145.023 60.9706C144.848 60.8151 144.593 60.7892 144.39 60.9065L143.379 61.4897C143.176 61.6069 143.071 61.8408 143.118 62.0704L143.447 63.6756C143.278 63.8302 143.115 63.9928 142.961 64.1618L141.355 63.8334C141.126 63.7864 140.892 63.8916 140.775 64.0945L140.191 65.1048C140.074 65.3076 140.1 65.5628 140.256 65.7382L141.341 66.9617C141.271 67.1811 141.211 67.4041 141.162 67.6291L139.61 68.1463C139.388 68.2205 139.238 68.4286 139.238 68.6629V69.8293C139.238 70.0638 139.388 70.2719 139.61 70.346L141.162 70.863C141.211 71.088 141.271 71.311 141.341 71.5305L140.255 72.7541C140.1 72.9294 140.074 73.1846 140.191 73.3876L140.775 74.3977C140.892 74.6007 141.126 74.706 141.355 74.659L142.961 74.3304C143.115 74.4996 143.278 74.6621 143.447 74.8166L143.118 76.4218C143.071 76.6514 143.176 76.8853 143.379 77.0025L144.39 77.5858C144.593 77.703 144.848 77.6771 145.023 77.5215L146.247 76.4366C146.466 76.5063 146.689 76.5658 146.914 76.6151L147.431 78.1668C147.505 78.3891 147.713 78.5391 147.948 78.5391H149.114C149.349 78.5391 149.557 78.3891 149.631 78.1668L150.148 76.6151C150.373 76.566 150.596 76.5063 150.815 76.4366L152.039 77.5217C152.214 77.6771 152.47 77.703 152.672 77.5858L153.683 77.0025C153.885 76.8855 153.991 76.6514 153.944 76.4218L153.615 74.8166C153.785 74.6621 153.947 74.4996 154.101 74.3304L155.707 74.659C155.936 74.706 156.17 74.6007 156.287 74.3977L156.871 73.3876C156.988 73.1846 156.962 72.9294 156.806 72.7541L155.721 71.5305C155.791 71.3112 155.851 71.0881 155.9 70.863L157.452 70.346C157.674 70.2719 157.824 70.0638 157.824 69.8293V68.6629C157.824 68.4286 157.674 68.2205 157.452 68.1464V68.1463ZM150.65 64.486L149.174 67.0439C148.748 66.9198 148.302 66.925 147.889 67.0454L146.413 64.4883C147.728 63.9047 149.268 63.8695 150.65 64.486ZM149.736 69.2461C149.736 69.9107 149.196 70.4513 148.531 70.4513C147.867 70.4513 147.326 69.9107 147.326 69.2461C147.326 68.5817 147.867 68.0409 148.531 68.0409C149.196 68.0409 149.736 68.5815 149.736 69.2461ZM145.47 65.0328L146.946 67.5898C146.635 67.8872 146.408 68.2707 146.303 68.7017H143.349C143.506 67.1966 144.307 65.8801 145.47 65.0328ZM145.47 73.4595C144.307 72.6121 143.506 71.2958 143.349 69.7907H146.303C146.408 70.2217 146.635 70.605 146.946 70.9024L145.47 73.4595ZM146.412 74.0063L147.889 71.4483C148.315 71.5725 148.76 71.5673 149.173 71.447L150.649 74.0039C149.334 74.5876 147.794 74.6227 146.412 74.0063ZM151.592 73.4595L150.116 70.9024C150.427 70.605 150.654 70.2216 150.759 69.7907H153.713C153.556 71.2958 152.756 72.6121 151.592 73.4595ZM150.76 68.7017C150.654 68.2707 150.427 67.8872 150.116 67.5898L151.593 65.0328C152.756 65.8801 153.556 67.1966 153.713 68.7015H150.76V68.7017Z" fill="#80BBE1"/>
<path fill-rule="evenodd" clip-rule="evenodd" d="M24.322 51.6586L26.8949 52.1876C27.0163 52.537 27.1539 52.8811 27.3069 53.2177L25.81 55.3755C25.5954 55.6847 25.6029 56.0966 25.8284 56.3979L26.9509 57.8976C27.1766 58.1988 27.5693 58.322 27.9268 58.2033L30.424 57.3735C30.7025 57.6137 30.9925 57.8417 31.2918 58.0561L31.0741 60.6783C31.043 61.0536 31.2553 61.4064 31.6013 61.5545L33.3233 62.292C33.6693 62.4403 34.0713 62.3504 34.3213 62.069L36.0655 60.1055C36.4283 60.1747 36.7952 60.2274 37.1635 60.2631L38.2844 62.6386C38.4449 62.979 38.8054 63.1785 39.179 63.1338L41.0392 62.9114C41.4128 62.8667 41.7161 62.5879 41.7919 62.2193L42.3209 59.6465C42.6704 59.5249 43.0147 59.3872 43.3508 59.2345L45.5088 60.7313C45.8182 60.9459 46.23 60.9384 46.5312 60.7129L48.0309 59.5902C48.3323 59.3646 48.4553 58.9715 48.3366 58.6143L47.5068 56.1174C47.7471 55.8386 47.9751 55.5485 48.1893 55.2495L50.8116 55.4671C51.1869 55.4983 51.5397 55.2858 51.6878 54.9398L52.4253 53.218C52.5734 52.872 52.4836 52.4698 52.2021 52.22L50.2388 50.4757C50.308 50.1126 50.3606 49.7457 50.3961 49.3777L52.7719 48.257C53.1123 48.0963 53.3118 47.736 53.2671 47.3622L53.0447 45.5022C53.0001 45.1284 52.7211 44.8252 52.3524 44.7495L49.7797 44.2209C49.6584 43.8714 49.5206 43.527 49.3677 43.1904L50.8646 41.0326C51.0792 40.7232 51.0717 40.3114 50.8462 40.0102L49.7235 38.5105C49.498 38.2093 49.105 38.0861 48.7477 38.2048L46.2505 39.0346C45.9719 38.7943 45.6819 38.5663 45.3828 38.3521L45.6004 35.7296C45.6316 35.3545 45.4192 35.0017 45.0733 34.8536L43.3513 34.1161C43.0051 33.968 42.6033 34.0577 42.3533 34.3393L40.6091 36.3026C40.2461 36.2334 39.8792 36.1808 39.511 36.1451L38.3903 33.7695C38.2296 33.4291 37.8693 33.2296 37.4955 33.2743L35.6355 33.4967C35.2619 33.5414 34.9586 33.8202 34.8828 34.1888L34.3538 36.7617C34.0044 36.8832 33.6603 37.0209 33.3239 37.1737L31.1659 35.6768C30.8566 35.4623 30.4448 35.4697 30.1435 35.6952L28.6438 36.8179C28.3426 37.0434 28.2194 37.4364 28.3381 37.7937L29.1679 40.2909C28.9277 40.5694 28.6996 40.8595 28.4854 41.1586L25.8629 40.9408C25.4878 40.9097 25.1348 41.1222 24.9869 41.4681L24.2494 43.1901C24.1011 43.5361 24.191 43.9381 24.4726 44.1881L26.4359 45.9322C26.3667 46.2955 26.314 46.6625 26.2784 47.0307L23.903 48.1511C23.5624 48.3116 23.3629 48.6719 23.4076 49.0457L23.63 50.9059C23.6745 51.2795 23.9533 51.5828 24.322 51.6586ZM35.8656 56.1986L37.7326 51.838C38.4356 51.9549 39.1452 51.8616 39.7807 51.591L42.6226 55.3869C40.6363 56.5684 38.1869 56.9181 35.8656 56.1986ZM36.4154 48.4338C36.2887 47.3741 37.0478 46.4089 38.1074 46.2821C39.1672 46.1555 40.1324 46.9145 40.2591 47.9743C40.3857 49.0339 39.6267 49.9991 38.567 50.1258C37.5074 50.2526 36.5422 49.4936 36.4154 48.4338ZM44.0223 54.3389L41.1806 50.5429C41.6192 50.0095 41.9087 49.3547 41.9944 48.6474L46.7042 48.0842C46.7408 50.5142 45.7153 52.7659 44.0223 54.339V54.3389ZM42.4156 40.9018C44.4319 42.0312 45.9593 43.9777 46.4967 46.3477L41.7868 46.9109C41.5366 46.2436 41.1009 45.6756 40.5489 45.2607L42.4156 40.9018ZM40.8088 40.2095L38.9419 44.57C38.239 44.453 37.5293 44.5464 36.8939 44.817L34.052 41.0212C36.0383 39.8397 38.4877 39.4899 40.8088 40.2095ZM32.6523 42.0691L35.494 45.8652C35.0554 46.3986 34.7659 47.0533 34.6801 47.7606L29.9703 48.3238C29.9336 45.8937 30.9593 43.6421 32.6523 42.0691ZM34.8877 49.4972C35.1378 50.1643 35.5735 50.7323 36.1255 51.1474L34.2588 55.5063C32.2426 54.3769 30.7151 52.4304 30.1779 50.0604L34.8877 49.4972Z" fill="#80BBE1"/>
<path fill-rule="evenodd" clip-rule="evenodd" d="M103.874 24.7548L104.853 24.9562C104.9 25.0891 104.952 25.2201 105.01 25.3483L104.44 26.1696C104.359 26.2873 104.362 26.444 104.447 26.5588L104.875 27.1295C104.96 27.2441 105.11 27.2911 105.246 27.2459L106.197 26.9301C106.303 27.0214 106.413 27.1083 106.527 27.1898L106.444 28.188C106.432 28.3307 106.513 28.465 106.645 28.5215L107.3 28.8021C107.432 28.8586 107.585 28.8243 107.68 28.7172L108.344 27.9699C108.482 27.9962 108.622 28.0163 108.762 28.0299L109.188 28.9341C109.25 29.0636 109.387 29.1396 109.529 29.1226L110.237 29.0378C110.379 29.0209 110.495 28.9148 110.523 28.7744L110.725 27.7952C110.858 27.7489 110.989 27.6965 111.117 27.6384L111.938 28.208C112.056 28.2897 112.213 28.2869 112.327 28.201L112.898 27.7738C113.013 27.6879 113.06 27.5383 113.014 27.4023L112.699 26.4519C112.79 26.3458 112.877 26.2355 112.958 26.1216L113.957 26.2044C114.099 26.2163 114.234 26.1354 114.29 26.0038L114.571 25.3483C114.627 25.2167 114.593 25.0636 114.486 24.9685L113.738 24.3046C113.765 24.1665 113.785 24.0269 113.798 23.8866L114.703 23.4602C114.832 23.399 114.908 23.2619 114.891 23.1196L114.806 22.4116C114.789 22.2693 114.683 22.154 114.543 22.1251L113.564 21.9239C113.517 21.7909 113.465 21.6599 113.407 21.5317L113.977 20.7103C114.058 20.5927 114.055 20.4359 113.97 20.3212L113.542 19.7504C113.456 19.6358 113.307 19.5888 113.171 19.6341L112.22 19.9499C112.114 19.8584 112.004 19.7716 111.89 19.6901L111.973 18.692C111.985 18.5493 111.904 18.4149 111.772 18.3584L111.117 18.0779C110.985 18.0214 110.832 18.0556 110.737 18.1628L110.073 18.9101C109.935 18.8837 109.795 18.8637 109.655 18.8502L109.229 17.9459C109.168 17.8164 109.03 17.7404 108.888 17.7575L108.18 17.8421C108.038 17.8591 107.923 17.9652 107.894 18.1055L107.692 19.0848C107.559 19.131 107.428 19.1834 107.3 19.2415L106.479 18.6719C106.361 18.5903 106.204 18.5931 106.09 18.679L105.519 19.1062C105.404 19.1921 105.357 19.3416 105.403 19.4776L105.718 20.428C105.627 20.5341 105.54 20.6445 105.459 20.7583L104.461 20.6755C104.318 20.6637 104.184 20.7444 104.127 20.8762L103.846 21.5315C103.79 21.6632 103.824 21.8163 103.931 21.9115L104.679 22.5753C104.652 22.7135 104.632 22.8532 104.619 22.9934L103.715 23.4198C103.585 23.481 103.509 23.6181 103.526 23.7603L103.611 24.4683C103.628 24.6105 103.734 24.726 103.874 24.7548H103.874ZM108.268 26.4828L108.978 24.8232C109.246 24.8676 109.516 24.8321 109.758 24.7291L110.839 26.1739C110.084 26.6236 109.151 26.7566 108.268 26.4828ZM108.477 23.5273C108.429 23.1241 108.718 22.7567 109.121 22.7085C109.524 22.6602 109.892 22.9491 109.94 23.3525C109.988 23.7558 109.699 24.1232 109.296 24.1714C108.893 24.2196 108.525 23.9307 108.477 23.5273ZM111.372 25.775L110.291 24.3302C110.458 24.1271 110.568 23.878 110.601 23.6087L112.393 23.3943C112.407 24.3193 112.017 25.1763 111.372 25.775ZM110.761 20.6606C111.528 21.0904 112.11 21.8313 112.314 22.7334L110.521 22.9478C110.426 22.6939 110.26 22.4777 110.05 22.3196L110.761 20.6606ZM110.149 20.3971L109.439 22.0568C109.171 22.0123 108.901 22.0479 108.659 22.1509L107.577 20.706C108.333 20.2564 109.266 20.1232 110.149 20.3971ZM107.045 21.1049L108.126 22.5497C107.959 22.7528 107.849 23.0019 107.817 23.2712L106.024 23.4855C106.01 22.5607 106.4 21.7036 107.045 21.1049ZM107.895 23.9322C107.991 24.1861 108.157 24.4022 108.367 24.5603L107.656 26.2194C106.889 25.7895 106.307 25.0485 106.103 24.1466L107.896 23.9322H107.895Z" fill="#80BBE1"/>
<path fill-rule="evenodd" clip-rule="evenodd" d="M59.2236 10.6682L59.8792 10.803C59.9101 10.892 59.9452 10.9796 59.9842 11.0654L59.6028 11.6153C59.548 11.694 59.5499 11.7991 59.6075 11.8758L59.8934 12.2579C59.9509 12.3346 60.051 12.366 60.1421 12.3358L60.7784 12.1244C60.8494 12.1856 60.9233 12.2437 60.9996 12.2983L60.9441 12.9664C60.9362 13.062 60.9902 13.152 61.0784 13.1897L61.5172 13.3776C61.6053 13.4154 61.7078 13.3924 61.7714 13.3207L62.2159 12.8205C62.3084 12.838 62.4018 12.8515 62.4957 12.8606L62.7813 13.4659C62.8222 13.5527 62.914 13.6035 63.0093 13.592L63.4832 13.5354C63.5785 13.524 63.6557 13.453 63.6751 13.3591L63.8098 12.7035C63.8988 12.6725 63.9866 12.6374 64.0722 12.5986L64.6221 12.98C64.701 13.0346 64.8059 13.0327 64.8826 12.9752L65.2647 12.6892C65.3416 12.6317 65.3729 12.5316 65.3426 12.4405L65.1313 11.8043C65.1924 11.7332 65.2505 11.6593 65.3051 11.5831L65.9732 11.6385C66.069 11.6466 66.1588 11.5924 66.1966 11.5043L66.3845 11.0656C66.4222 10.9773 66.3993 10.8749 66.3276 10.8112L65.8273 10.3667C65.8449 10.2742 65.8583 10.1808 65.8674 10.087L66.4727 9.80135C66.5595 9.76052 66.6103 9.66861 66.5989 9.57348L66.5423 9.09944C66.5308 9.00431 66.4599 8.92704 66.3659 8.90772L65.7104 8.77293C65.6794 8.68395 65.6444 8.59628 65.6053 8.51052L65.9867 7.96067C66.0414 7.88178 66.0395 7.77685 65.982 7.70016L65.696 7.31803C65.6385 7.2412 65.5384 7.20988 65.4474 7.24003L64.811 7.45151C64.7401 7.39033 64.6662 7.33223 64.5899 7.27764L64.6454 6.60939C64.6534 6.51382 64.5993 6.42396 64.5112 6.3862L64.0724 6.19829C63.9841 6.16053 63.8817 6.18336 63.818 6.25507L63.3736 6.75545C63.2811 6.73774 63.1877 6.72443 63.0939 6.71535L62.8082 6.11003C62.7674 6.02325 62.6755 5.97246 62.5803 5.98373L62.1063 6.04052C62.0112 6.05179 61.9339 6.12291 61.9146 6.21687L61.7798 6.87239C61.6908 6.90327 61.603 6.93839 61.5174 6.97732L60.9675 6.59593C60.8886 6.54134 60.7837 6.54324 60.707 6.60061L60.3249 6.88673C60.248 6.9441 60.2167 7.04435 60.2469 7.13539L60.4583 7.77158C60.3972 7.84256 60.3391 7.91647 60.2845 7.99272L59.6162 7.93725C59.5207 7.92935 59.4308 7.9835 59.393 8.07161L59.2051 8.51037C59.1674 8.59848 59.1902 8.70092 59.2619 8.76459L59.7623 9.20906C59.7446 9.30156 59.7313 9.39508 59.7222 9.48903L59.1169 9.77442C59.0301 9.8154 58.9793 9.90717 58.9906 10.0024L59.0474 10.4763C59.0586 10.5716 59.1296 10.6489 59.2236 10.6682ZM62.165 11.825L62.6406 10.7139C62.8198 10.7437 63.0006 10.7199 63.1625 10.6509L63.8867 11.6182C63.3806 11.9192 62.7564 12.0084 62.165 11.825ZM62.305 9.84643C62.2728 9.57641 62.4662 9.33054 62.7362 9.29819C63.0062 9.266 63.2521 9.45933 63.2844 9.72935C63.3168 9.99937 63.1233 10.2454 62.8533 10.2776C62.5832 10.3099 62.3374 10.1165 62.305 9.84643ZM64.2433 11.3511L63.5192 10.3838C63.631 10.2479 63.7048 10.0812 63.7266 9.90087L64.9267 9.75745C64.936 10.3765 64.6748 10.9504 64.2433 11.3511ZM63.834 7.9273C64.3477 8.21503 64.7368 8.71102 64.8738 9.31488L63.6737 9.45845C63.6099 9.28839 63.499 9.14364 63.3583 9.03798L63.834 7.9273ZM63.4245 7.75095L62.9488 8.86191C62.7697 8.8322 62.589 8.85591 62.4269 8.92499L61.7028 7.95774C62.209 7.65669 62.8331 7.56757 63.4245 7.75095ZM61.3461 8.22469L62.0703 9.19194C61.9585 9.3279 61.8847 9.49475 61.8629 9.67491L60.6628 9.81848C60.6534 9.19926 60.9148 8.62555 61.3461 8.22469ZM61.9157 10.1175C61.9795 10.2874 62.0905 10.4321 62.2313 10.538L61.7556 11.6486C61.2418 11.3607 60.8526 10.8649 60.7156 10.2609L61.9157 10.1175Z" fill="#80BBE1"/>
<path fill-rule="evenodd" clip-rule="evenodd" d="M209.116 149.229L207.234 144.503C207.123 144.226 206.961 143.978 206.752 143.765L204.263 141.237C203.798 140.765 203.153 140.525 202.494 140.581L201.24 140.685C200.723 140.727 200.234 140.952 199.864 141.316L198.968 142.199L209.206 152.599C209.569 151.523 209.555 150.331 209.116 149.229ZM204.302 143.813L203.678 143.179L204.312 142.555L204.936 143.189L204.302 143.813ZM207.585 150.257C207.552 150.132 207.511 150.008 207.462 149.886L205.582 145.162C205.559 145.106 205.526 145.056 205.484 145.014L204.926 144.447L205.56 143.823L206.118 144.39C206.244 144.517 206.341 144.666 206.408 144.833L208.289 149.557C208.351 149.712 208.403 149.872 208.445 150.032L207.585 150.257Z" fill="#80BBE1"/>
<path fill-rule="evenodd" clip-rule="evenodd" d="M199.513 152.273L197.25 152.871C197.03 152.929 196.827 153.044 196.665 153.204C196.149 153.712 196.143 154.545 196.65 155.061L196.681 155.091C197.188 155.607 198.021 155.614 198.537 155.106C198.699 154.946 198.818 154.745 198.88 154.526L199.513 152.273Z" fill="#80BBE1"/>
<path fill-rule="evenodd" clip-rule="evenodd" d="M204.897 140.613L207.386 143.141C207.408 143.164 207.427 143.189 207.449 143.212L208.086 142.585L204.966 139.415L204.254 140.116C204.486 140.253 204.703 140.416 204.897 140.613Z" fill="#80BBE1"/>
<path fill-rule="evenodd" clip-rule="evenodd" d="M205.288 138.474L209.032 142.277C209.205 142.452 209.487 142.454 209.661 142.282L210.929 141.034C211.104 140.862 211.106 140.58 210.934 140.405L210.622 140.088L209.354 141.336L208.73 140.702L209.998 139.454L209.374 138.82L208.106 140.068L207.482 139.434L208.75 138.186L208.126 137.552L206.858 138.8L206.234 138.166L207.502 136.918L207.19 136.601C207.017 136.426 206.736 136.424 206.561 136.596L205.293 137.845C205.118 138.017 205.116 138.299 205.288 138.474V138.474Z" fill="#80BBE1"/>
<path fill-rule="evenodd" clip-rule="evenodd" d="M201.103 150.707C199.555 149.134 197.015 149.114 195.442 150.663C193.869 152.212 193.849 154.751 195.398 156.324C196.946 157.897 199.486 157.917 201.059 156.368C202.632 154.82 202.652 152.28 201.103 150.707ZM196.047 155.715L196.016 155.685C195.165 154.819 195.175 153.422 196.041 152.57C196.313 152.302 196.653 152.109 197.023 152.01L200.791 151.014L199.737 154.767C199.632 155.135 199.434 155.472 199.161 155.74C198.296 156.592 196.899 156.581 196.047 155.715Z" fill="#80BBE1"/>
<path fill-rule="evenodd" clip-rule="evenodd" d="M208.815 153.469L198.334 142.823L189.142 151.872C188.268 152.732 188.257 154.143 189.117 155.017L196.606 162.624C197.467 163.498 198.878 163.509 199.751 162.649L208.003 154.526C208.327 154.207 208.596 153.85 208.815 153.469ZM199.127 162.015C198.603 162.531 197.756 162.524 197.24 162L189.751 154.393C189.235 153.869 189.242 153.022 189.766 152.506L197.373 145.017C197.897 144.501 198.744 144.507 199.26 145.031L206.75 152.639C207.266 153.163 207.259 154.01 206.735 154.526L199.127 162.015Z" fill="#80BBE1"/>
<path fill-rule="evenodd" clip-rule="evenodd" d="M206.116 153.263L198.627 145.656C198.454 145.481 198.172 145.478 197.998 145.651L190.39 153.14C190.215 153.312 190.213 153.594 190.385 153.769L197.874 161.376C198.047 161.551 198.328 161.553 198.503 161.381L206.111 153.892C206.285 153.72 206.288 153.438 206.116 153.263V153.263ZM198.617 146.914C198.789 147.089 198.787 147.37 198.612 147.543C198.436 147.715 198.155 147.713 197.983 147.538C197.81 147.362 197.812 147.081 197.988 146.909C198.163 146.736 198.444 146.738 198.617 146.914ZM191.643 153.779C191.471 153.603 191.473 153.322 191.648 153.15C191.824 152.977 192.105 152.979 192.277 153.155C192.45 153.33 192.448 153.611 192.272 153.784C192.097 153.956 191.816 153.954 191.643 153.779ZM197.884 160.118C197.712 159.943 197.714 159.662 197.889 159.489C198.064 159.316 198.346 159.319 198.518 159.494C198.691 159.669 198.689 159.95 198.513 160.123C198.338 160.296 198.057 160.293 197.884 160.118ZM194.764 156.948C192.871 155.026 192.895 151.922 194.818 150.029C196.74 148.137 199.844 148.161 201.737 150.083C203.63 152.006 203.605 155.11 201.683 157.002C199.76 158.895 196.656 158.871 194.764 156.948ZM204.223 153.877C204.051 153.702 204.053 153.421 204.229 153.248C204.404 153.076 204.685 153.078 204.858 153.253C205.03 153.428 205.028 153.71 204.853 153.882C204.677 154.055 204.396 154.053 204.223 153.877Z" fill="#80BBE1"/>
<path fill-rule="evenodd" clip-rule="evenodd" d="M182.683 44.4817L178.931 48.6918C179.519 49.2812 180.203 49.7729 180.951 50.1551L183.795 45.2878C183.347 45.1341 182.961 44.8527 182.683 44.4817Z" fill="#80BBE1"/>
<path fill-rule="evenodd" clip-rule="evenodd" d="M181.813 50.5297C182.666 50.8438 183.583 51.0241 184.544 51.0241C185.505 51.0241 186.421 50.8438 187.275 50.5297L184.544 45.8555L181.813 50.5297Z" fill="#80BBE1"/>
<path fill-rule="evenodd" clip-rule="evenodd" d="M176.623 42.7915C176.619 42.8909 176.608 42.9879 176.608 43.0885C176.608 44.9362 177.248 46.6337 178.311 47.9843L181.911 43.9437L176.623 42.7915Z" fill="#80BBE1"/>
<path fill-rule="evenodd" clip-rule="evenodd" d="M184.544 40.7543C184.784 40.7543 185.012 40.8012 185.23 40.869L185.791 35.2604C185.383 35.1959 184.969 35.1526 184.544 35.1526C184.119 35.1526 183.704 35.1959 183.297 35.2604L183.857 40.869C184.076 40.8012 184.303 40.7543 184.544 40.7543Z" fill="#80BBE1"/>
<path fill-rule="evenodd" clip-rule="evenodd" d="M185.944 43.0882C185.944 43.8617 185.317 44.4887 184.544 44.4887C183.77 44.4887 183.143 43.8617 183.143 43.0882C183.143 42.3146 183.77 41.6877 184.544 41.6877C185.317 41.6877 185.944 42.3146 185.944 43.0882Z" fill="#80BBE1"/>
<path fill-rule="evenodd" clip-rule="evenodd" d="M182.378 35.4604C180.553 35.9797 178.991 37.1317 177.955 38.6703L182.917 40.8493L182.378 35.4604Z" fill="#80BBE1"/>
<path fill-rule="evenodd" clip-rule="evenodd" d="M182.64 41.7472L177.483 39.4827C177.107 40.2155 176.846 41.0138 176.714 41.8555L182.213 43.0532C182.22 42.5674 182.377 42.1183 182.64 41.7472Z" fill="#80BBE1"/>
<path fill-rule="evenodd" clip-rule="evenodd" d="M190.777 47.9843C191.84 46.6337 192.48 44.9362 192.48 43.0885C192.48 42.9879 192.468 42.8909 192.465 42.7915L187.176 43.9437L190.777 47.9843Z" fill="#80BBE1"/>
<path fill-rule="evenodd" clip-rule="evenodd" d="M196.214 42.6216H198.07C198.019 41.121 197.724 39.6819 197.221 38.3428L195.505 39.0536L195.147 38.1909L196.861 37.4809C196.248 36.1421 195.427 34.9206 194.434 33.8575L193.126 35.1656L192.466 34.5056L193.774 33.1976C192.712 32.2056 191.49 31.383 190.151 30.7711L189.441 32.4841L188.579 32.1276L189.289 30.4116C187.951 29.9083 186.511 29.6139 185.011 29.5625V31.4181H184.077V29.5625C182.577 29.6134 181.137 29.9083 179.798 30.4112L180.509 32.1272L179.646 32.4846L178.936 30.7715C177.598 31.3836 176.376 32.2056 175.313 33.1981L176.621 34.506L175.961 35.1661L174.653 33.8581C173.661 34.9211 172.838 36.1425 172.227 37.4814L173.94 38.1915L173.583 39.0536L171.867 38.3428C171.364 39.6819 171.069 41.121 171.018 42.6216H172.874V43.5552H171.018C171.069 45.0554 171.364 46.4945 171.867 47.834L173.583 47.123L173.941 47.9854L172.227 48.6955C172.839 50.0339 173.661 51.2561 174.654 52.319L175.961 51.0109L176.622 51.6709L175.314 52.9792C176.376 53.971 177.598 54.7935 178.937 55.4054L179.646 53.6923L180.509 54.0499L179.799 55.7659C181.138 56.269 182.577 56.5635 184.077 56.6144V54.7585H185.011V56.614C186.511 56.5631 187.951 56.2682 189.29 55.7653L188.579 54.0494L189.442 53.6917L190.152 55.405C191.49 54.7929 192.712 53.971 193.775 52.9786L192.467 51.6705L193.127 51.0104L194.435 52.3185C195.427 51.2554 196.25 50.0339 196.861 48.6951L195.148 47.985L195.505 47.1222L197.222 47.8335C197.725 46.4941 198.02 45.055 198.071 43.5547H196.214V42.6216ZM184.544 53.8249C178.623 53.8249 173.807 49.0082 173.807 43.0883C173.807 37.1682 178.623 32.3517 184.544 32.3517C190.464 32.3517 195.281 37.1682 195.281 43.0883C195.281 49.0082 190.464 53.8249 184.544 53.8249Z" fill="#80BBE1"/>
<path fill-rule="evenodd" clip-rule="evenodd" d="M184.544 33.2854C179.139 33.2854 174.741 37.6826 174.741 43.0883C174.741 48.4937 179.139 52.8913 184.544 52.8913C189.949 52.8913 194.347 48.4937 194.347 43.0883C194.347 37.6826 189.949 33.2854 184.544 33.2854ZM184.544 51.9577C179.653 51.9577 175.675 47.9791 175.675 43.0883C175.675 38.1976 179.653 34.219 184.544 34.219C189.435 34.219 193.413 38.1976 193.413 43.0883C193.413 47.9791 189.435 51.9577 184.544 51.9577Z" fill="#80BBE1"/>
<path fill-rule="evenodd" clip-rule="evenodd" d="M185.293 45.2878L188.136 50.1551C188.885 49.7729 189.569 49.2812 190.157 48.6918L186.405 44.4817C186.127 44.8527 185.741 45.1343 185.293 45.2878Z" fill="#80BBE1"/>
<path fill-rule="evenodd" clip-rule="evenodd" d="M186.874 43.0537L192.374 41.856C192.241 41.0137 191.98 40.2155 191.604 39.4832L186.448 41.7477C186.71 42.1184 186.867 42.5674 186.874 43.0537Z" fill="#80BBE1"/>
<path fill-rule="evenodd" clip-rule="evenodd" d="M186.709 35.4604L186.17 40.8493L191.132 38.6703C190.096 37.1312 188.535 35.9797 186.709 35.4604Z" fill="#80BBE1"/>
<path fill-rule="evenodd" clip-rule="evenodd" d="M141.373 4.71191L142.029 4.8467C142.06 4.93568 142.095 5.02335 142.134 5.10911L141.752 5.65896C141.697 5.7377 141.699 5.84278 141.757 5.91947L142.043 6.3016C142.1 6.37829 142.2 6.40975 142.291 6.37946L142.928 6.16812C142.999 6.2293 143.073 6.2874 143.149 6.34199L143.094 7.01009C143.086 7.10566 143.14 7.19567 143.228 7.23343L143.667 7.42135C143.755 7.45911 143.857 7.43613 143.921 7.36441L144.365 6.86418C144.458 6.88174 144.551 6.89521 144.645 6.90428L144.931 7.5096C144.972 7.59638 145.063 7.64717 145.159 7.63575L145.633 7.57911C145.728 7.5677 145.805 7.49672 145.824 7.40276L145.959 6.74724C146.048 6.71622 146.136 6.68109 146.222 6.64231L146.772 7.0237C146.85 7.07829 146.955 7.07639 147.032 7.01888L147.414 6.7329C147.491 6.67538 147.522 6.57528 147.492 6.48425L147.281 5.84805C147.342 5.77692 147.4 5.70301 147.455 5.62676L148.123 5.68223C148.218 5.69028 148.308 5.63613 148.346 5.54803L148.534 5.10926C148.572 5.02101 148.549 4.91856 148.477 4.8549L147.977 4.41042C147.994 4.31793 148.008 4.22455 148.017 4.13074L148.622 3.84506C148.709 3.80423 148.76 3.71232 148.748 3.61719L148.692 3.14315C148.68 3.04802 148.609 2.97074 148.515 2.95143L147.86 2.81663C147.829 2.72765 147.794 2.63999 147.755 2.55422L148.136 2.00437C148.191 1.92549 148.189 1.82055 148.131 1.74386L147.845 1.36174C147.788 1.2849 147.688 1.25358 147.597 1.28373L146.96 1.49521C146.889 1.43404 146.816 1.37593 146.739 1.32134L146.795 0.653094C146.803 0.557525 146.749 0.467664 146.661 0.429905L146.222 0.24199C146.134 0.204231 146.031 0.22706 145.967 0.298773L145.523 0.799158C145.43 0.781449 145.337 0.768127 145.243 0.759054L144.958 0.153739C144.917 0.0669511 144.825 0.0161646 144.73 0.0274338L144.256 0.0842207C144.161 0.0954899 144.083 0.166618 144.064 0.260577L143.929 0.916094C143.84 0.946974 143.752 0.982098 143.667 1.02103L143.117 0.639631C143.038 0.585041 142.933 0.586944 142.856 0.644315L142.474 0.930436C142.397 0.987807 142.366 1.08806 142.396 1.17909L142.608 1.81529C142.547 1.88627 142.488 1.96017 142.434 2.03642L141.766 1.98096C141.67 1.97306 141.58 2.02721 141.542 2.11531L141.355 2.55408C141.317 2.64218 141.34 2.74463 141.411 2.80829L141.912 3.25277C141.894 3.34526 141.881 3.43878 141.872 3.53274L141.266 3.81813C141.18 3.85911 141.129 3.95087 141.14 4.04615L141.197 4.52004C141.208 4.61532 141.279 4.69259 141.373 4.71191ZM144.314 5.86869L144.79 4.75757C144.969 4.78743 145.15 4.76357 145.312 4.69464L146.036 5.66189C145.53 5.96293 144.906 6.05207 144.314 5.86869ZM144.454 3.89014C144.422 3.62012 144.616 3.37424 144.886 3.3419C145.156 3.3097 145.402 3.50303 145.434 3.77305C145.466 4.04308 145.273 4.2891 145.003 4.32129C144.733 4.35364 144.487 4.16016 144.454 3.89014ZM146.393 5.39479L145.669 4.42755C145.78 4.29158 145.854 4.12489 145.876 3.94458L147.076 3.80115C147.085 4.42023 146.824 4.99408 146.393 5.39479ZM145.983 1.97101C146.497 2.25874 146.886 2.75473 147.023 3.35858L145.823 3.50215C145.759 3.33209 145.648 3.18735 145.508 3.08168L145.983 1.97101ZM145.574 1.79465L145.098 2.90562C144.919 2.87591 144.738 2.89962 144.576 2.9687L143.852 2.00145C144.358 1.7004 144.983 1.61127 145.574 1.79465ZM143.496 2.2684L144.22 3.23565C144.108 3.37161 144.034 3.53845 144.012 3.71861L142.812 3.86218C142.803 3.24296 143.064 2.66926 143.496 2.2684ZM144.065 4.16118C144.129 4.3311 144.24 4.47584 144.381 4.58166L143.905 5.69233C143.391 5.40445 143.002 4.90861 142.865 4.30461L144.065 4.16118Z" fill="#80BBE1"/>
</svg>
